{"title":"Inside.Out.2015.HDTURBO.TS.XviD.AC3-SUPERCHiVED","uid":12165245,"size":1054919130,"categoryP":"video","categoryS":"movies","magnet":"?xt=urn:btih:b4b3c060baa16d1f5e5816f41fef079f383decf4&amp;dn=Inside.Out.2015.HDTURBO.TS.XviD.AC3-SUPERCHiVED&amp;tr=udp%3A%2F%2Ftracker.openbittorrent.com%3A80&amp;tr=udp%3A%2F%2Fopen.demonii.com%3A1337&amp;tr=udp%3A%2F%2Ftracker.coppersurfer.tk%3A6969&amp;tr=udp%3A%2F%2Fexodus.desync.com%3A6969","seeders":0,"leechers":0,"uploader":"TvTeam","files":4,"time":1438013235,"description":"------------------------------------------------------------------------\n\n &lt;a href=&quot; https://www.torrenting.com&quot; rel=&quot;nofollow&quot; target=&quot;_NEW&quot;&gt; https://www.torrenting.com&lt;/a&gt;\n\nSign up is OPEN - for time being. Come and have fun\n\n.......................................................................................................................[img]http://s3.postimg.org/8n89ak9qr/4_AL.jpg[/img]\n\nInside.Out.2015.HDTURBO.TS.XviD.AC3-SUPERCHiVED\n\nSource: Video-Pelis24 Audio-CHiVE \n\ntook your audio and muxed it to my vid which i filtered with no filters and i just named it like this for HITS !!!!!  &lt;a href=&quot;\nhttp://www.imdb.com/title/tt2096673/&quot; rel=&quot;nofollow&quot; target=&quot;_NEW&quot;&gt;\nhttp://www.imdb.com/title/tt2096673/&lt;/a&gt;\n\nGeneral\nComplete name                            : Inside.Out.2015.HDTURBO.TS.XviD.AC3-SUPERCHiVED.avi\nFormat                                   : AVI\nFormat/Info                              : Audio Video Interleave\nFile size                                : 979 MiB\nDuration                                 : 1h 28mn\nOverall bit rate                         : 1 540 Kbps\n\nVideo\nID                                       : 0\nFormat                                   : MPEG-4 Visual\nFormat profile                           : Advanced Simple@L5\nFormat settings, BVOP                    : 2\nFormat settings, QPel                    : No\nFormat settings, GMC                     : No warppoints\nFormat settings, Matrix                  : Default (H.263)\nMuxing mode                              : Packed bitstream\nCodec ID                                 : XVID\nCodec ID/Hint                            : XviD\nDuration                                 : 1h 28mn\nBit rate                                 : 1 339 Kbps\nWidth                                    : 720 pixels\nHeight                                   : 400 pixels\nDisplay aspect ratio                     : 16:9\nFrame rate                               : 29.970 fps\nColor space                              : YUV\nChroma subsampling                       : 4:2:0\nBit depth                                : 8 bits\nScan type                                : Progressive\nCompression mode                         : Lossy\nBits/(Pixel*Frame)                       : 0.155\nStream size                              : 852 MiB (87%)\nWriting library                          : XviD 64\n\nAudio\nID                                       : 1\nFormat                                   : AC-3\nFormat/Info                              : Audio Coding 3\nMode extension                           : CM (complete main)\nFormat settings, Endianness              : Big\nCodec ID                                 : 2000\nDuration                                 : 1h 28mn\nBit rate mode                            : Constant\nBit rate                                 : 192 Kbps\nChannel(s)                               : 2 channels\nChannel positions                        : Front: L R\nSampling rate                            : 44.1 KHz\nCompression mode                         : Lossy\nStream size                              : 122 MiB (12%)\nAlignment                                : Aligned on interleaves\nInterleave, duration                     : 70 ms (2.09 video frames)\nInterleave, preload duration             : 208 ms\nTitle                                    : Inside.avi_track_1_\n\n[img]http://s8.postimg.org/nooe87iph/vlcsnap_2015_07_27_15h18m39s291.jpg[/img]\n[img]http://s8.postimg.org/62l4h5zzp/vlcsnap_2015_07_27_15h18m58s366.jpg[/img]\n[img]http://s8.postimg.org/ixt43xf91/vlcsnap_2015_07_27_15h20m32s849.jpg[/img]\n[img]http://s8.postimg.org/hk1h8mfzp/vlcsnap_2015_07_27_15h23m36s735.jpg[/img]\n[img]http://s8.postimg.org/jxjezmuet/vlcsnap_2015_07_27_15h24m19s939.jpg[/img]\n[img]http://s8.postimg.org/xbwhvo12t/vlcsnap_2015_07_27_15h24m31s022.jpg[/img]\n[img]http://s8.postimg.org/p4zwqclmd/vlcsnap_2015_07_27_15h32m31s255.jpg[/img]\n[img]http://s8.postimg.org/wq7izk60l/vlcsnap_2015_07_27_15h35m04s515.jpg[/img]\n[img]http://s8.postimg.org/8qakrit11/vlcsnap_2015_07_27_15h35m50s318.jpg[/img]\n[img]http://s8.postimg.org/v3ibebtyt/vlcsnap_2015_07_27_15h36m19s204.jpg[/img]","torrent":{"xt":"urn:btih:b4b3c060baa16d1f5e5816f41fef079f383decf4","amp;dn":"Inside.Out.2015.HDTURBO.TS.XviD.AC3-SUPERCHiVED","amp;tr":["udp%3A%2F%2Ftracker.openbittorrent.com%3A80","udp%3A%2F%2Fopen.demonii.com%3A1337","udp%3A%2F%2Ftracker.coppersurfer.tk%3A6969","udp%3A%2F%2Fexodus.desync.com%3A6969"],"infoHash":"b4b3c060baa16d1f5e5816f41fef079f383decf4","infoHashBuffer":{"type":"Buffer","data":[180,179,192,96,186,161,109,31,94,88,22,244,31,239,7,159,56,61,236,244]},"announce":[],"urlList":[]}}